<?xml version="1.0" standalone="no"?>
<!DOCTYPE svg PUBLIC "-//W3C//DTD SVG 20010904//EN"
 "http://www.w3.org/TR/2001/REC-SVG-20010904/DTD/svg10.dtd">
<svg version="1.0" xmlns="http://www.w3.org/2000/svg"
 width="1024.000000pt" height="1024.000000pt" viewBox="0 0 1024.000000 1024.000000"
 preserveAspectRatio="xMidYMid meet">

<g transform="translate(0.000000,1024.000000) scale(0.100000,-0.100000)"
fill="#000000" stroke="none">
<path d="M5580 8320 c0 -6 4 -10 9 -10 5 0 12 -8 14 -17 4 -14 5 -13 6 3 0 12
-6 24 -14 28 -8 3 -15 1 -15 -4z"/>
<path d="M5766 8272 c-2 -4 -7 -25 -10 -47 -5 -38 -5 -38 4 -9 6 18 17 35 26
38 25 10 86 -25 111 -63 13 -19 23 -31 23 -27 0 13 -29 63 -44 75 -20 17 -104
42 -110 33z"/>
<path d="M4304 8245 c-11 -27 2 -37 14 -11 7 16 8 26 1 26 -5 0 -12 -7 -15
-15z"/>
<path d="M4761 8164 c-7 -33 -20 -97 -30 -144 -11 -47 -17 -88 -14 -92 10 -17
24 -7 18 12 -10 32 24 169 46 180 15 9 21 4 37 -33 37 -84 45 -116 32 -132
-10 -13 -8 -15 14 -15 26 0 26 1 13 28 -8 15 -31 74 -52 132 -21 58 -42 109
-46 114 -4 4 -12 -18 -18 -50z"/>
<path d="M4100 8202 c0 -4 10 -12 23 -17 16 -8 30 -34 54 -105 18 -53 30 -107
28 -122 -4 -28 8 -38 20 -18 10 17 -65 233 -87 253 -21 18 -38 22 -38 9z"/>
<path d="M5741 8164 c0 -11 3 -14 6 -6 3 7 2 16 -1 19 -3 4 -6 -2 -5 -13z"/>
<path d="M3960 8140 c-6 -12 -9 -24 -7 -27 3 -2 11 5 17 17 6 12 9 24 7 27 -3
2 -11 -5 -17 -17z"/>
<path d="M6295 8115 c0 -24 3 -38 7 -32 10 16 10 65 1 70 -5 3 -8 -14 -8 -38z"/>
<path d="M5922 8115 c0 -16 2 -22 5 -12 2 9 2 23 0 30 -3 6 -5 -1 -5 -18z"/>
<path d="M3783 8060 c14 -11 33 -43 42 -71 9 -28 19 -48 22 -45 7 7 -37 120
-50 128 -27 17 -38 7 -14 -12z"/>
<path d="M6439 8034 c-11 -26 -18 -49 -16 -51 3 -2 10 9 16 24 20 49 41 55 98
27 57 -29 73 -55 73 -120 0 -31 5 -46 16 -51 22 -8 37 12 63 82 28 75 12 61
-19 -17 -28 -69 -56 -80 -47 -20 9 72 -23 117 -111 151 l-53 21 -20 -46z"/>
<path d="M5921 8014 c0 -11 3 -14 6 -6 3 7 2 16 -1 19 -3 4 -6 -2 -5 -13z"/>
<path d="M4671 7994 c0 -11 3 -14 6 -6 3 7 2 16 -1 19 -3 4 -6 -2 -5 -13z"/>
<path d="M6081 7984 c0 -11 3 -14 6 -6 3 7 2 16 -1 19 -3 4 -6 -2 -5 -13z"/>
<path d="M3971 7964 c0 -11 3 -14 6 -6 3 7 2 16 -1 19 -3 4 -6 -2 -5 -13z"/>
<path d="M6402 7945 c-17 -37 -14 -45 4 -12 9 16 14 31 11 33 -2 2 -9 -7 -15
-21z"/>
<path d="M4661 7944 c0 -11 3 -14 6 -6 3 7 2 16 -1 19 -3 4 -6 -2 -5 -13z"/>
<path d="M6072 7930 c0 -14 2 -19 5 -12 2 6 2 18 0 25 -3 6 -5 1 -5 -13z"/>
<path d="M3976 7932 c-3 -5 1 -9 9 -9 8 0 12 4 9 9 -3 4 -7 8 -9 8 -2 0 -6 -4
-9 -8z"/>
<path d="M3850 7925 c0 -15 53 -165 57 -161 5 5 -47 166 -53 166 -2 0 -4 -2
-4 -5z"/>
<path d="M4651 7904 c0 -11 3 -14 6 -6 3 7 2 16 -1 19 -3 4 -6 -2 -5 -13z"/>
<path d="M4020 7905 c0 -18 19 -40 26 -32 4 4 0 15 -9 24 -9 10 -17 13 -17 8z"/>
<path d="M4141 7869 c-96 -33 -104 -38 -90 -59 8 -13 11 -13 22 2 19 24 120
60 150 53 21 -6 29 -22 61 -123 23 -73 34 -124 30 -136 -5 -14 -4 -17 4 -12 7
4 12 14 12 22 0 31 -85 284 -95 283 -5 0 -48 -14 -94 -30z"/>
<path d="M4758 7893 c-57 -5 -62 -11 -78 -116 -12 -72 -11 -80 5 -95 16 -16
17 -16 5 7 -9 18 -9 37 0 87 7 34 17 70 24 79 16 22 154 33 177 13 24 -20 70
-133 63 -154 -6 -16 -4 -17 6 -7 11 10 7 28 -22 100 l-36 88 -49 1 c-26 0 -69
-1 -95 -3z"/>
<path d="M6367 7865 c-21 -43 -21 -41 -1 -49 13 -5 15 -2 11 15 -3 12 -1 31 4
41 6 11 9 22 7 24 -3 2 -12 -12 -21 -31z"/>
<path d="M3996 7873 c-6 -14 -5 -15 5 -6 7 7 10 15 7 18 -3 3 -9 -2 -12 -12z"/>
<path d="M6061 7874 c0 -11 3 -14 6 -6 3 7 2 16 -1 19 -3 4 -6 -2 -5 -13z"/>
<path d="M3384 7865 c-3 -8 -4 -20 -2 -27 3 -7 7 -1 10 15 6 29 1 36 -8 12z"/>
<path d="M3319 7838 c11 -15 11 -18 0 -18 -11 0 -11 -2 1 -10 8 -5 11 -12 7
-16 -4 -4 -19 3 -34 17 -15 13 -22 17 -15 7 7 -9 9 -18 5 -20 -4 -3 -3 -3 4
-2 6 2 17 -3 23 -11 8 -9 19 -11 33 -6 15 6 26 4 34 -4 9 -10 10 -14 1 -17 -7
-3 -5 -7 5 -11 9 -3 17 -2 17 4 0 19 -30 69 -42 69 -6 0 -21 8 -32 18 -20 16
-20 16 -7 0z"/>
<path d="M3345 7840 c-3 -5 -1 -10 4 -10 6 0 11 5 11 10 0 6 -2 10 -4 10 -3 0
-8 -4 -11 -10z"/>
<path d="M6036 7805 c-27 -70 -87 -139 -147 -169 -70 -34 -158 -35 -316 -1
-126 27 -147 29 -123 16 18 -10 137 -36 243 -52 121 -19 217 13 290 95 22 26
81 145 75 152 -3 2 -13 -16 -22 -41z"/>
<path d="M6511 7759 c-12 -29 -20 -54 -17 -56 2 -2 13 19 25 48 12 28 20 53
18 55 -2 3 -14 -19 -26 -47z"/>
<path d="M5661 7784 c0 -11 3 -14 6 -6 3 7 2 16 -1 19 -3 4 -6 -2 -5 -13z"/>
<path d="M3190 7771 c0 -5 11 -12 24 -15 14 -3 34 -19 46 -36 36 -50 272 -464
273 -477 0 -15 17 -18 17 -4 0 6 -16 38 -36 72 -28 48 -33 63 -23 70 7 4 17 5
21 3 4 -3 8 0 8 7 0 10 3 10 11 2 14 -14 2 -36 -17 -29 -7 3 -11 0 -8 -7 2 -7
17 -13 32 -14 15 -1 21 1 15 4 -20 8 -15 22 6 18 14 -3 18 1 14 11 -3 8 0 14
6 14 6 0 11 -6 11 -12 0 -9 4 -8 10 2 6 10 10 11 10 3 0 -7 5 -13 10 -13 6 0
5 8 -2 20 -9 14 -15 16 -21 7 -6 -8 -7 -6 -3 5 4 15 -48 117 -70 137 -4 3 -3
0 1 -8 6 -11 4 -13 -9 -8 -9 4 -15 3 -13 -1 2 -4 -13 -22 -34 -40 l-37 -33
-38 68 c-80 148 -144 251 -160 257 -23 9 -44 7 -44 -3z m346 -276 c9 -9 11
-15 4 -15 -6 0 -8 -5 -5 -10 4 -6 11 -7 17 -4 6 4 8 2 4 -4 -3 -5 0 -12 6 -15
7 -3 3 -4 -9 -4 -23 1 -38 22 -28 38 4 5 -1 6 -10 3 -12 -5 -13 -9 -4 -20 6
-8 8 -14 3 -14 -5 0 -2 -5 6 -10 11 -7 11 -10 2 -10 -7 0 -11 -3 -9 -7 3 -5
-6 -16 -19 -26 -23 -17 -24 -17 -39 14 -16 30 -16 32 6 55 12 13 26 21 31 18
4 -3 11 2 14 10 8 20 12 20 30 1z m40 -82 c-2 -13 -10 -15 -33 -6 -21 8 -14
21 11 21 15 0 23 -6 22 -15z"/>
<path d="M3475 7460 c3 -5 -2 -10 -12 -11 -11 0 -13 -3 -5 -6 6 -2 10 -9 7
-13 -3 -5 4 -8 15 -7 13 1 19 6 15 15 -3 7 -5 18 -5 23 0 5 -5 9 -11 9 -5 0
-7 -4 -4 -10z"/>
<path d="M3270 7770 c0 -5 5 -10 11 -10 5 0 7 5 4 10 -3 6 -8 10 -11 10 -2 0
-4 -4 -4 -10z"/>
<path d="M6276 7641 c-31 -76 -56 -140 -56 -143 0 -3 6 -8 13 -11 10 -4 13 1
10 16 -2 12 16 71 41 131 51 123 44 111 73 120 31 10 73 -32 73 -73 0 -16 4
-32 8 -35 8 -5 6 33 -3 80 -4 19 -65 54 -94 54 -5 0 -34 -62 -65 -139z"/>
<path d="M3292 7755 c-10 -12 -10 -19 0 -34 13 -21 48 -24 48 -4 0 7 7 10 18
7 12 -4 13 -3 4 3 -7 5 -10 17 -6 26 4 12 1 17 -12 17 -16 0 -17 -2 -4 -10 12
-8 10 -10 -8 -10 -13 0 -20 4 -17 10 9 15 -8 11 -23 -5z m28 -25 c0 -5 -2 -10
-4 -10 -3 0 -8 5 -11 10 -3 6 -1 10 4 10 6 0 11 -4 11 -10z"/>
<path d="M3910 7743 c0 -16 62 -194 66 -190 5 5 -55 197 -61 197 -3 0 -5 -3
-5 -7z"/>
<path d="M5490 7740 c0 -5 -9 -19 -20 -30 -20 -20 -16 -27 6 -12 12 8 29 52
20 52 -3 0 -6 -4 -6 -10z"/>
<path d="M3410 7729 c0 -6 -7 -9 -14 -6 -10 4 -13 1 -10 -8 7 -17 34 -8 34 11
0 8 -2 14 -5 14 -3 0 -5 -5 -5 -11z"/>
<path d="M3317 7694 c-9 -15 37 -71 55 -68 10 1 21 -3 25 -8 3 -6 2 -8 -3 -5
-6 3 -16 1 -24 -5 -12 -8 -12 -9 3 -4 11 3 20 0 23 -9 4 -8 10 -12 15 -9 5 3
20 -3 34 -14 18 -14 21 -22 12 -31 -8 -8 -7 -11 4 -11 12 0 12 -2 -1 -11 -12
-9 -12 -10 3 -5 10 3 22 6 25 6 4 0 0 5 -8 10 -12 8 -13 12 -2 19 11 7 11 9
-2 14 -9 4 -13 13 -10 22 4 9 3 15 -2 14 -5 -1 -22 -1 -38 0 -24 1 -26 3 -16
15 6 8 19 12 28 9 14 -4 14 -3 3 5 -8 6 -20 8 -26 6 -14 -6 -30 25 -19 35 4 3
9 0 11 -6 6 -17 20 -16 20 1 0 8 -11 16 -23 19 -13 2 -21 0 -18 -4 3 -5 0 -9
-5 -9 -6 0 -11 4 -11 10 0 5 -7 7 -16 3 -9 -3 -20 0 -24 7 -4 6 -10 8 -13 4z
m43 -39 c11 -13 10 -14 -4 -9 -9 3 -16 10 -16 15 0 13 6 11 20 -6z"/>
<path d="M4586 7673 c-6 -14 -5 -15 5 -6 7 7 10 15 7 18 -3 3 -9 -2 -12 -12z"/>
<path d="M5055 7679 c-115 -11 -134 -16 -65 -18 79 -1 190 10 190 20 0 5 -8 8
-17 8 -10 -1 -58 -6 -108 -10z"/>
<path d="M5640 7681 c0 -5 5 -13 10 -16 6 -3 10 -2 10 4 0 5 -4 13 -10 16 -5
3 -10 2 -10 -4z"/>
<path d="M6471 7663 c-10 -26 -10 -27 4 -9 8 11 15 23 15 28 0 15 -7 8 -19
-19z"/>
<path d="M4470 7676 c0 -2 8 -10 18 -17 15 -13 16 -12 3 4 -13 16 -21 21 -21
13z"/>
<path d="M4540 7637 c0 -8 -43 -26 -112 -47 -61 -19 -106 -36 -101 -37 6 -2
58 9 115 26 127 36 198 51 244 51 19 0 33 4 30 8 -3 5 -38 5 -78 0 -49 -6 -74
-6 -76 2 -5 15 -22 12 -22 -3z"/>
<path d="M4110 7625 c0 -5 5 -17 10 -25 5 -8 10 -10 10 -5 0 6 -5 17 -10 25
-5 8 -10 11 -10 5z"/>
<path d="M6073 7584 c-13 -14 -18 -24 -11 -22 10 4 45 48 37 48 -2 0 -14 -12
-26 -26z"/>
<path d="M7201 7580 c-72 -33 -220 -199 -277 -312 -33 -66 -30 -74 5 -12 83
152 225 300 308 323 26 8 44 7 68 -3 39 -17 47 -29 56 -81 l6 -40 2 43 c1 36
-4 49 -28 73 -35 35 -76 38 -140 9z"/>
<path d="M4095 7580 c-3 -5 -1 -10 4 -10 6 0 11 5 11 10 0 6 -2 10 -4 10 -3 0
-8 -4 -11 -10z"/>
<path d="M4017 7566 c-4 -10 -1 -13 8 -9 8 3 12 9 9 14 -7 12 -11 11 -17 -5z"/>
<path d="M4130 7566 c0 -2 8 -10 18 -17 15 -13 16 -12 3 4 -13 16 -21 21 -21
13z"/>
<path d="M3406 7535 c4 -8 7 -15 9 -15 2 0 5 7 9 15 3 9 0 15 -9 15 -9 0 -12
-6 -9 -15z"/>
<path d="M3983 7513 c0 -18 4 -33 9 -33 10 0 9 18 -2 45 -6 16 -8 14 -7 -12z"/>
<path d="M4126 7527 c3 -10 9 -15 12 -12 3 3 0 11 -7 18 -10 9 -11 8 -5 -6z"/>
<path d="M6030 7524 c0 -10 387 -174 411 -174 11 0 83 129 76 137 -3 3 -19
-22 -36 -55 -17 -33 -34 -63 -38 -65 -8 -4 -154 53 -321 126 -89 39 -92 40
-92 31z"/>
<path d="M4022 7508 c-12 -12 -4 -41 9 -32 5 3 7 10 4 15 -4 5 -2 9 4 9 5 0
11 -5 13 -12 3 -9 6 -9 11 -1 10 17 -27 35 -41 21z"/>
<path d="M2830 7499 c0 -5 5 -7 10 -4 6 3 10 1 10 -4 0 -6 -10 -10 -22 -8 -17
1 -23 -3 -22 -15 1 -10 -3 -15 -9 -11 -6 4 -8 0 -4 -10 3 -9 2 -19 -3 -22 -6
-4 -10 -1 -10 6 0 7 -3 10 -6 7 -3 -4 23 -71 59 -150 97 -214 188 -437 197
-483 4 -22 8 -34 9 -27 1 6 7 12 14 12 7 0 19 9 27 20 8 11 19 20 24 20 6 0
-8 -19 -29 -41 -22 -23 -31 -37 -20 -31 11 6 38 29 60 52 25 26 32 38 19 31
-18 -8 -27 -7 -48 10 -29 23 -100 162 -93 181 4 10 6 10 6 1 1 -18 21 -16 21
1 0 19 108 109 134 112 12 1 46 -15 76 -35 45 -31 56 -44 60 -72 3 -19 11 -35
20 -37 9 -1 64 37 122 85 71 58 168 123 288 191 179 103 248 151 130 92 -77
-39 -279 -158 -302 -178 -10 -8 -24 -12 -33 -9 -9 4 -15 1 -15 -7 0 -20 -58
-66 -74 -60 -21 8 -28 34 -10 34 8 0 12 -4 9 -10 -3 -5 1 -10 9 -10 26 0 18
17 -14 30 -16 7 -71 38 -121 69 -71 45 -97 56 -120 53 -22 -3 -27 -8 -20 -15
6 -6 11 -14 11 -19 0 -4 -11 4 -25 17 -13 14 -31 25 -39 25 -9 0 -20 9 -27 21
-7 15 -18 20 -34 17 -16 -4 -22 -1 -18 8 3 9 12 10 28 4 26 -10 43 11 22 28
-26 20 -75 41 -82 34 -5 -4 -5 -2 -1 5 8 15 -47 45 -68 37 -9 -3 -13 -10 -10
-16 4 -5 10 -5 18 1 7 6 17 6 26 1 8 -6 11 -10 5 -11 -5 0 -18 -2 -27 -4 -21
-4 -50 26 -30 32 22 8 13 25 -10 18 -16 -4 -19 -3 -9 3 16 12 -3 27 -21 16 -6
-4 -8 -3 -5 3 4 6 0 14 -9 17 -21 8 -24 8 -24 -5z m48 -49 c7 -11 10 -20 6
-20 -7 0 -34 27 -34 34 0 13 16 5 28 -14z m-41 -34 c-3 -8 -1 -17 6 -20 7 -2
4 -5 -6 -5 -10 -1 -15 -6 -12 -11 4 -7 12 -7 25 0 12 6 21 7 25 0 3 -5 -6 -12
-20 -16 l-25 -6 22 -39 c12 -22 24 -36 27 -32 16 22 57 11 127 -33 62 -38 75
-50 72 -68 -3 -16 1 -22 13 -22 10 0 16 2 14 5 -3 2 0 10 7 18 13 16 22 9 -92
78 -52 31 -99 61 -105 66 -17 17 12 9 36 -9 13 -10 44 -30 69 -43 25 -13 47
-27 50 -31 3 -3 12 -8 20 -10 8 -2 23 -12 33 -22 13 -15 15 -21 5 -28 -10 -6
-9 -8 2 -8 16 -1 -6 -21 -98 -92 -51 -39 -53 -40 -67 -22 -12 16 -12 12 1 -20
8 -21 13 -40 11 -43 -3 -2 -26 47 -52 109 -26 62 -68 154 -93 205 -25 51 -43
96 -39 100 5 4 12 1 17 -7 8 -12 10 -12 16 3 3 9 8 17 11 17 3 0 3 -6 0 -14z
m88 -24 c-3 -3 -11 0 -18 7 -9 10 -8 11 6 5 10 -3 15 -9 12 -12z m105 -12 c0
-5 -4 -10 -10 -10 -5 0 -10 5 -10 10 0 6 5 10 10 10 6 0 10 -4 10 -10z m40
-16 c0 -2 -7 -4 -15 -4 -8 0 -15 4 -15 10 0 5 7 7 15 4 8 -4 15 -8 15 -10z
m-175 -14 c3 -6 -1 -7 -9 -4 -18 7 -21 14 -7 14 6 0 13 -4 16 -10z m150 -60
c3 -6 -1 -7 -9 -4 -18 7 -21 14 -7 14 6 0 13 -4 16 -10z m40 -19 c3 -6 15 -8
27 -6 11 3 18 2 14 -2 -3 -3 -1 -12 5 -20 9 -9 8 -13 0 -13 -6 0 -11 5 -11 10
0 6 -6 10 -12 10 -16 1 -56 30 -41 30 7 0 14 -4 18 -9z m142 -7 c-3 -3 -12 -4
-19 -1 -8 3 -5 6 6 6 11 1 17 -2 13 -5z m-37 -99 c11 -13 10 -14 -4 -9 -9 3
-16 10 -16 15 0 13 6 11 20 -6z m66 -46 c4 -8 1 -8 -14 0 -12 6 -24 16 -28 22
-4 8 -1 8 14 0 12 -6 24 -16 28 -22z m167 -18 c-111 -93 -140 -109 -114 -64 6
11 11 13 11 5 0 -10 3 -10 15 2 8 8 15 19 15 25 0 6 7 8 15 5 18 -7 20 12 3
20 -7 3 -2 3 11 0 19 -5 23 -3 18 9 -4 11 0 13 14 10 11 -3 17 -9 12 -12z
m-132 -8 c13 -16 12 -17 -3 -4 -10 7 -18 15 -18 17 0 8 8 3 21 -13z m-261
-203 c0 -8 -7 -2 -15 14 -8 15 -15 33 -15 40 1 16 29 -36 30 -54z"/>
<path d="M2967 7099 c6 -23 34 -22 41 1 3 8 1 12 -3 8 -4 -4 -16 -3 -25 2 -15
8 -17 6 -13 -11z"/>
<path d="M4090 7482 c-66 -24 -140 -61 -100 -49 66 19 187 61 195 68 16 16
-18 9 -95 -19z"/>
<path d="M3822 7470 c0 -14 2 -19 5 -12 2 6 2 18 0 25 -3 6 -5 1 -5 -13z"/>
<path d="M7462 7395 c0 -16 2 -22 5 -12 2 9 2 23 0 30 -3 6 -5 -1 -5 -18z"/>
<path d="M3096 7343 c-12 -13 -5 -33 12 -33 14 0 14 2 3 9 -11 7 -10 10 5 13
17 3 17 4 2 10 -9 4 -19 4 -22 1z"/>
<path d="M3575 7340 c3 -5 8 -10 11 -10 2 0 4 5 4 10 0 6 -5 10 -11 10 -5 0
-7 -4 -4 -10z"/>
<path d="M3660 7341 c0 -13 28 -33 33 -23 3 4 -3 13 -14 20 -10 7 -19 8 -19 3z"/>
<path d="M7451 7336 c-3 -45 -76 -169 -133 -226 -121 -122 -258 -156 -381 -96
-66 32 -112 83 -132 146 -7 25 -14 36 -14 25 -1 -33 35 -100 74 -140 55 -54
107 -75 191 -75 62 0 81 5 140 35 106 53 187 141 240 262 14 30 23 63 21 72
-4 12 -5 12 -6 -3z"/>
<path d="M3548 7317 c-6 -16 1 -37 13 -37 4 0 6 7 3 15 -4 10 0 13 16 10 13
-2 19 -1 16 3 -4 4 -11 7 -14 7 -4 0 -12 4 -18 8 -7 4 -14 1 -16 -6z"/>
<path d="M3140 7301 c-21 -6 -22 -8 -8 -14 10 -3 20 -2 24 4 3 6 13 8 21 5 8
-3 11 -1 8 4 -7 11 -9 11 -45 1z"/>
<path d="M3610 7301 c0 -13 36 -20 51 -9 11 8 10 9 -3 4 -10 -3 -20 -1 -23 4
-8 12 -25 13 -25 1z"/>
<path d="M7663 7249 c-12 -30 -11 -32 3 -17 9 8 14 23 12 33 -2 12 -7 7 -15
-16z"/>
<path d="M2532 7217 c-28 -30 -28 -37 3 -37 21 0 25 5 25 30 0 36 -1 36 -28 7z"/>
<path d="M6891 7184 c0 -11 3 -14 6 -6 3 7 2 16 -1 19 -3 4 -6 -2 -5 -13z"/>
<path d="M7594 7178 l-19 -23 23 19 c21 18 27 26 19 26 -2 0 -12 -10 -23 -22z"/>
<path d="M2493 7163 c-24 -9 -13 -23 17 -23 37 0 54 -18 147 -160 42 -63 90
-133 107 -155 17 -22 23 -34 13 -26 -10 8 -17 9 -17 3 0 -6 -7 -12 -17 -14
-10 -2 1 -12 30 -26 85 -42 58 -40 -51 4 -59 24 -116 49 -127 54 -11 5 -55 23
-98 40 -114 44 -154 66 -160 90 -3 11 -2 20 3 20 4 0 10 -9 13 -20 3 -11 10
-20 16 -20 12 0 -6 39 -23 51 -5 4 -40 -34 -78 -85 l-69 -91 48 -7 c26 -3 93
-24 148 -46 55 -22 187 -74 294 -116 107 -42 201 -76 209 -74 8 2 22 14 30 28
l16 25 -25 -22 c-17 -16 -29 -19 -39 -13 -12 8 -11 10 7 10 34 0 37 32 7 87
-45 80 -93 148 -106 148 -15 0 -88 116 -83 131 5 16 -43 84 -57 81 -6 -1 -13
4 -16 12 -3 9 0 11 8 6 9 -5 11 -4 6 4 -4 6 -12 8 -18 5 -6 -4 -9 -1 -6 7 7
18 -10 51 -22 44 -5 -3 -18 8 -30 25 -20 28 -46 36 -77 23z m121 -68 c3 -8 1
-15 -4 -15 -6 0 -10 7 -10 15 0 8 2 15 4 15 2 0 6 -7 10 -15z m76 -120 c0 -4
-9 4 -20 18 -11 14 -20 28 -20 32 0 4 9 -4 20 -18 11 -14 20 -28 20 -32z"/>
<path d="M7709 7073 c-217 -159 -360 -292 -359 -334 1 -7 9 2 19 21 18 33 74
84 251 227 111 89 149 113 183 113 35 0 33 4 -4 14 -22 5 -39 -3 -90 -41z"/>
<path d="M2747 6890 c20 -33 38 -58 41 -55 5 5 -64 115 -72 115 -2 0 12 -27
31 -60z"/>
<path d="M7940 6905 c-11 -13 -10 -14 4 -9 9 3 16 10 16 15 0 13 -6 11 -20 -6z"/>
<path d="M7370 6900 c0 -5 5 -10 11 -10 5 0 7 5 4 10 -3 6 -8 10 -11 10 -2 0
-4 -4 -4 -10z"/>
<path d="M7410 6870 c-9 -6 -10 -10 -3 -10 6 0 15 5 18 10 8 12 4 12 -15 0z"/>
<path d="M7903 6844 c-26 -20 -72 -57 -101 -82 -29 -24 -55 -42 -58 -39 -3 2
25 28 61 56 36 28 65 54 65 57 0 7 -15 -4 -88 -64 -28 -24 -50 -47 -47 -52 5
-8 -66 -70 -80 -70 -5 0 0 10 11 22 12 14 6 12 -17 -7 -20 -17 -44 -36 -55
-43 -17 -11 -16 -11 4 -1 43 20 35 1 -11 -25 -48 -28 -62 -32 -51 -14 4 7 3 8
-5 4 -6 -4 -9 -11 -6 -16 6 -10 -29 -20 -73 -20 -44 0 -91 21 -136 60 -48 43
-66 78 -75 153 l-8 62 -2 -53 c-3 -123 113 -242 236 -242 50 0 123 45 293 181
91 72 174 135 186 139 11 4 33 6 50 3 28 -4 28 -4 10 11 -29 24 -50 20 -103
-20z"/>
<path d="M3108 6863 c7 -3 16 -2 19 1 4 3 -2 6 -13 5 -11 0 -14 -3 -6 -6z"/>
<path d="M7334 6818 c-3 -4 4 -8 15 -8 11 0 22 4 25 8 2 4 -4 8 -15 8 -11 0
-23 -4 -25 -8z"/>
<path d="M7351 6684 c0 -11 3 -14 6 -6 3 7 2 16 -1 19 -3 4 -6 -2 -5 -13z"/>
<path d="M8094 6661 c-39 -48 -520 -296 -560 -288 -13 2 -24 3 -24 2 0 -14 81
-129 89 -127 15 3 14 -15 -1 -21 -10 -4 -10 -6 0 -6 6 -1 12 -8 12 -17 0 -8 5
-12 10 -9 6 3 10 15 10 25 0 13 29 35 101 75 97 55 129 62 129 31 0 -10 6 -13
17 -9 22 9 19 5 -104 -159 l-104 -137 27 -53 c15 -29 29 -48 31 -41 6 17 33 4
33 -16 1 -9 11 2 23 25 12 22 37 61 55 86 34 49 40 64 20 52 -7 -4 -8 -3 -4 5
4 6 11 9 16 6 5 -3 27 22 50 55 44 65 55 69 113 45 43 -18 78 -19 132 -4 47
13 120 81 111 104 -3 10 -2 13 5 10 11 -7 8 10 -18 108 -9 31 -20 57 -24 57
-5 0 -9 7 -9 15 0 20 -85 188 -102 202 -10 8 -18 4 -34 -16z m121 -206 c0 -87
-78 -160 -181 -171 -58 -6 -104 17 -129 66 -16 31 -12 58 4 31 6 -10 9 -8 13
6 6 21 233 147 248 138 6 -3 10 2 10 12 0 14 3 13 18 -7 11 -16 17 -43 17 -75z
m-129 49 c-73 -43 -205 -110 -191 -96 13 13 227 130 240 131 6 1 -17 -15 -49
-35z m154 -258 c0 -2 -8 -10 -17 -17 -16 -13 -17 -12 -4 4 13 16 21 21 21 13z
m-326 -91 c-9 -14 -18 -25 -21 -25 -5 0 5 18 20 38 17 22 18 13 1 -13z m-74
-109 c0 -2 -8 -10 -17 -17 -16 -13 -17 -12 -4 4 13 16 21 21 21 13z m-121 -76
c11 -24 11 -24 -3 -6 -9 11 -16 24 -16 30 0 12 5 7 19 -24z m61 -10 c-6 -11
-13 -20 -16 -20 -2 0 0 9 6 20 6 11 13 20 16 20 2 0 0 -9 -6 -20z"/>
<path d="M7370 6590 c0 -6 4 -9 9 -6 5 4 12 1 14 -4 3 -6 4 -5 3 2 -3 15 -26
23 -26 8z"/>
<path d="M7415 6570 c3 -6 20 -10 37 -10 38 0 34 5 -10 13 -21 4 -31 3 -27 -3z"/>
<path d="M2025 6504 l-27 -46 174 -177 c96 -97 207 -212 248 -255 41 -44 82
-81 92 -81 13 -1 26 11 39 36 10 21 19 40 19 43 0 2 -17 2 -38 0 -36 -4 -44 0
-105 57 -65 59 -83 85 -52 73 10 -4 13 -2 10 8 -3 8 11 44 32 81 34 60 41 67
69 67 44 0 137 -29 151 -47 7 -9 19 -13 29 -9 12 4 15 2 10 -9 -10 -26 3 -16
19 15 18 35 19 44 3 34 -7 -4 -8 -3 -4 5 4 6 11 9 16 6 5 -3 22 20 38 50 31
56 30 59 -19 55 -29 -1 -105 13 -334 65 -82 18 -186 41 -230 50 -44 8 -87 18
-96 21 -12 3 -25 -9 -44 -42z m211 -89 c12 -2 30 -7 40 -13 11 -6 41 -13 67
-17 53 -8 84 -29 89 -61 3 -22 -60 -143 -75 -144 -5 0 -5 5 -2 11 4 6 -2 5
-13 -2 -12 -7 -18 -18 -15 -24 3 -5 -15 10 -41 35 -25 24 -46 46 -46 49 0 3
18 -13 40 -34 22 -21 40 -37 40 -34 0 2 -26 29 -57 59 -31 30 -50 46 -42 35
13 -18 13 -19 -3 -6 -10 7 -16 17 -13 21 6 9 -29 42 -38 35 -4 -3 -5 -2 -2 2
3 4 -9 21 -26 39 -45 47 -35 69 29 59 26 -4 57 -9 68 -10z m306 -417 c-7 -7
-12 -8 -12 -2 0 14 12 26 19 19 2 -3 -1 -11 -7 -17z"/>
<path d="M7532 6293 c29 -55 54 -100 56 -98 5 4 -74 157 -93 180 -9 11 8 -26
37 -82z"/>
<path d="M6650 6320 c6 -11 12 -20 14 -20 2 0 2 9 -1 20 -3 11 -9 20 -15 20
-5 0 -4 -9 2 -20z"/>
<path d="M3574 6313 c-4 -10 -8 -26 -9 -35 -2 -14 2 -15 16 -8 21 12 34 30 22
30 -5 0 -15 -6 -23 -12 -8 -8 -7 -2 3 15 10 15 13 27 8 27 -5 0 -12 -8 -17
-17z"/>
<path d="M6625 6300 c3 -5 16 -15 28 -21 22 -12 22 -12 3 10 -19 21 -43 30
-31 11z"/>
<path d="M3456 6164 c-10 -14 -15 -28 -13 -31 3 -2 13 7 23 21 9 15 14 29 12
32 -3 2 -13 -7 -22 -22z"/>
<path d="M6760 6181 c0 -6 4 -13 10 -16 6 -3 7 1 4 9 -7 18 -14 21 -14 7z"/>
<path d="M3475 6150 c-10 -11 -16 -22 -13 -25 3 -3 13 4 23 15 10 11 16 22 13
25 -3 3 -13 -4 -23 -15z"/>
<path d="M6740 6163 c0 -13 29 -38 35 -31 3 3 -4 13 -15 23 -11 10 -20 13 -20
8z"/>
<path d="M5022 6098 c-28 -28 -1 -75 37 -63 11 3 23 15 26 26 12 38 -35 65
-63 37z"/>
<path d="M7689 6083 c-13 -16 -12 -17 4 -4 9 7 17 15 17 17 0 8 -8 3 -21 -13z"/>
<path d="M1822 6038 c-6 -19 -12 -47 -12 -62 0 -24 2 -26 21 -16 27 15 77 6
212 -37 95 -30 108 -37 104 -54 -6 -22 -4 -22 41 -10 18 6 30 6 27 2 -2 -5
-15 -11 -27 -14 -326 -78 -435 -109 -450 -127 -9 -11 -20 -39 -24 -63 -5 -34
-8 -38 -15 -22 -12 32 -11 -6 2 -43 10 -30 11 -30 38 -14 26 15 37 12 272 -58
279 -83 331 -103 323 -125 -5 -11 -2 -13 10 -9 15 6 26 36 41 109 l6 30 -15
-25 c-8 -14 -16 -20 -16 -15 0 6 -4 4 -9 -4 -11 -17 11 -22 -291 68 -174 52
-219 69 -147 56 30 -6 36 -5 32 7 -11 29 23 40 343 118 153 38 175 45 185 67
8 18 7 27 -4 37 -12 12 -202 71 -469 147 -106 30 -147 48 -156 70 -9 19 -10
18 -22 -13z"/>
<path d="M6856 6025 c4 -8 8 -15 10 -15 2 0 4 7 4 15 0 8 -4 15 -10 15 -5 0
-7 -7 -4 -15z"/>
<path d="M3370 6022 c0 -5 -9 -19 -20 -32 -11 -13 -18 -26 -15 -28 3 -3 12 3
20 14 11 15 15 16 16 4 1 -8 0 -19 -1 -25 -1 -5 2 -6 7 -2 4 5 8 12 8 15 1 4
7 18 14 32 l14 25 -23 -20 -23 -20 7 23 c4 12 5 22 2 22 -3 0 -6 -4 -6 -8z"/>
<path d="M6831 6007 c2 -1 13 -9 24 -17 19 -14 19 -14 6 3 -7 9 -18 17 -24 17
-6 0 -8 -1 -6 -3z"/>
<path d="M8108 5994 c-111 -26 -212 -94 -260 -172 -12 -21 -29 -42 -37 -48
-23 -18 -18 -112 11 -175 34 -73 71 -115 132 -147 47 -25 60 -27 171 -27 113
0 124 2 196 33 42 18 95 48 117 68 57 49 102 142 102 212 0 31 -3 52 -7 49 -3
-4 -14 15 -23 42 -9 27 -24 60 -33 74 -22 35 -79 76 -124 93 -49 17 -172 16
-245 -2z m330 -131 c15 -11 32 -34 38 -52 5 -17 13 -29 17 -25 21 22 -18 -65
-40 -89 -86 -89 -394 -179 -509 -148 -47 13 -89 53 -80 76 4 10 2 14 -5 9 -8
-4 -9 1 -3 17 4 13 8 36 9 51 0 16 10 37 25 50 l24 23 -22 -26 c-33 -39 -26
-47 11 -12 51 49 186 107 332 142 63 16 172 7 203 -16z m-621 -125 c-3 -7 -5
-2 -5 12 0 14 2 19 5 13 2 -7 2 -19 0 -25z"/>
<path d="M5400 5996 c0 -2 8 -10 18 -17 15 -13 16 -12 3 4 -13 16 -21 21 -21
13z"/>
<path d="M5380 5945 c0 -9 -13 -22 -29 -28 l-30 -13 45 -28 c25 -16 48 -26 51
-22 4 3 2 6 -3 6 -5 0 -16 4 -23 9 -12 8 -11 13 8 28 21 17 22 22 10 41 -16
26 -29 29 -29 7z"/>
<path d="M5420 5951 c0 -12 46 -57 73 -72 33 -18 17 7 -28 44 -25 21 -45 33
-45 28z"/>
<path d="M4950 5900 c0 -5 5 -10 10 -10 6 0 10 5 10 10 0 6 -4 10 -10 10 -5 0
-10 -4 -10 -10z"/>
<path d="M5589 5796 c38 -40 43 -43 35 -23 -3 8 -19 24 -37 37 l-32 23 34 -37z"/>
<path d="M2780 5611 c-7 -15 -7 -22 2 -27 7 -4 10 -4 6 1 -4 4 -3 16 3 26 5
11 7 19 5 19 -3 0 -10 -9 -16 -19z"/>
<path d="M2762 5548 c-6 -13 -13 -34 -15 -48 -1 -14 -6 -30 -10 -36 -11 -18
-36 -148 -33 -169 2 -11 0 -22 -5 -25 -17 -12 -33 -204 -32 -395 1 -230 23
-406 75 -595 33 -121 67 -193 53 -115 -4 22 -10 44 -13 50 -4 5 -7 15 -8 20
-2 6 -16 74 -33 151 -61 287 -75 574 -40 799 6 39 12 86 14 106 1 20 5 41 8
45 3 5 14 52 26 105 11 53 23 103 27 112 9 25 -1 21 -14 -5z"/>
<path d="M5890 5509 c-9 -16 -8 -26 5 -45 17 -27 27 -29 56 -14 21 12 25 50 7
68 -19 19 -56 14 -68 -9z"/>
<path d="M3300 5286 c0 -8 4 -17 8 -20 4 -2 8 4 8 15 0 10 -4 19 -8 19 -4 0
-8 -6 -8 -14z"/>
<path d="M5565 5291 c-3 -5 -1 -12 5 -16 5 -3 10 1 10 9 0 18 -6 21 -15 7z"/>
<path d="M3295 5240 c-3 -5 -3 -10 2 -10 4 0 2 -4 -6 -9 -9 -6 -10 -11 -2 -15
6 -4 11 -4 12 1 0 4 2 16 4 26 4 19 -1 22 -10 7z"/>
<path d="M5628 5183 c7 -3 16 -2 19 1 4 3 -2 6 -13 5 -11 0 -14 -3 -6 -6z"/>
<path d="M3276 5143 c-6 -14 -5 -15 5 -6 7 7 10 15 7 18 -3 3 -9 -2 -12 -12z"/>
<path d="M5675 5150 c3 -5 8 -10 11 -10 2 0 4 5 4 10 0 6 -5 10 -11 10 -5 0
-7 -4 -4 -10z"/>
<path d="M5720 5130 c0 -5 4 -10 9 -10 6 0 13 5 16 10 3 6 -1 10 -9 10 -9 0
-16 -4 -16 -10z"/>
<path d="M3270 5110 c0 -5 5 -10 10 -10 6 0 10 5 10 10 0 6 -4 10 -10 10 -5 0
-10 -4 -10 -10z"/>
<path d="M5660 5065 c-13 -14 -21 -25 -18 -25 10 0 51 40 46 45 -2 3 -15 -6
-28 -20z"/>
<path d="M3267 5053 c-8 -14 -7 -93 1 -93 4 0 8 23 9 50 0 49 -2 58 -10 43z"/>
<path d="M3633 5002 c-3 -12 -9 -19 -14 -16 -5 3 -9 0 -9 -5 0 -6 4 -11 10
-11 12 0 34 40 25 48 -3 3 -8 -4 -12 -16z"/>
<path d="M1979 4942 c-28 -64 -43 -72 -131 -72 l-40 0 57 -54 c49 -46 56 -57
49 -77 -23 -74 -32 -109 -28 -109 3 0 29 16 58 35 29 19 58 35 64 35 6 0 34
-14 61 -32 28 -17 54 -29 57 -26 3 4 -2 30 -10 59 -9 29 -16 57 -16 63 0 5 23
31 52 58 l52 48 -61 0 c-72 0 -84 9 -108 80 -9 27 -20 50 -23 50 -4 0 -19 -26
-33 -58z"/>
<path d="M3581 4944 c-12 -14 -11 -16 4 -12 10 1 20 9 23 16 5 17 -10 15 -27
-4z"/>
<path d="M3262 4918 c-3 -37 2 -35 12 5 3 15 3 27 -2 27 -4 0 -9 -14 -10 -32z"/>
<path d="M3032 4928 c-7 -7 -12 -21 -12 -33 0 -12 5 -26 12 -33 7 -7 21 -12
33 -12 12 0 26 5 33 12 7 7 12 21 12 33 0 12 -5 26 -12 33 -7 7 -21 12 -33 12
-12 0 -26 -5 -33 -12z"/>
<path d="M3550 4910 c0 -5 5 -10 10 -10 6 0 10 5 10 10 0 6 -4 10 -10 10 -5 0
-10 -4 -10 -10z"/>
<path d="M3515 4870 c-3 -5 1 -10 9 -10 9 0 16 5 16 10 0 6 -4 10 -9 10 -6 0
-13 -4 -16 -10z"/>
<path d="M3260 4858 c0 -9 5 -20 10 -23 13 -8 13 5 0 25 -8 13 -10 13 -10 -2z"/>
<path d="M3490 4840 c0 -4 -17 -25 -37 -46 -46 -48 -83 -92 -83 -100 0 -3 -22
-29 -49 -57 -27 -29 -60 -65 -72 -82 -13 -16 -26 -32 -29 -35 -3 -3 -28 -34
-55 -70 -27 -36 -61 -79 -75 -96 -14 -17 -32 -40 -40 -50 -87 -107 -275 -375
-362 -514 -42 -69 -150 -283 -165 -330 -69 -213 -26 -350 134 -425 52 -25 69
-28 163 -28 121 0 181 14 350 80 214 84 489 230 860 457 171 104 178 108 212
140 12 11 40 29 62 42 23 12 40 27 38 34 -1 6 2 9 8 5 13 -8 59 26 59 45 0 13
-1 13 -12 0 -7 -8 -18 -16 -25 -18 -24 -5 -71 -45 -65 -55 3 -5 0 -8 -8 -5 -8
3 -44 -15 -81 -39 -36 -24 -71 -43 -76 -43 -6 0 -12 -3 -14 -7 -6 -15 -484
-303 -501 -303 -4 0 -28 -13 -54 -28 -60 -35 -349 -172 -385 -183 -17 -4 -28
-4 -28 2 0 16 -26 10 -46 -12 -28 -32 -60 -44 -164 -68 -156 -35 -273 -15
-350 60 -55 53 -73 98 -72 181 1 72 20 122 74 190 39 50 201 158 239 159 16 1
34 3 39 4 6 1 15 3 21 4 6 0 9 8 6 15 -8 20 -6 21 413 238 47 24 158 87 248
139 89 51 174 100 187 107 14 7 30 22 36 33 10 20 9 20 -18 4 -15 -8 -35 -20
-43 -25 -27 -18 -252 -141 -370 -203 -63 -33 -119 -63 -125 -67 -5 -4 -93 -49
-195 -101 -102 -51 -227 -117 -279 -146 -101 -57 -100 -57 -119 -44 -16 10 25
97 112 235 31 48 56 92 56 96 0 5 4 10 8 12 5 2 48 59 96 128 48 69 99 140
114 159 58 73 100 136 96 143 -3 5 1 8 8 8 7 0 22 12 33 27 11 15 31 41 45 58
39 46 80 103 80 110 0 3 14 18 30 32 17 13 30 31 30 39 0 8 4 14 9 14 5 0 28
26 52 58 24 31 49 62 54 67 40 40 55 62 40 62 -8 0 -15 -4 -15 -7z"/>
<path d="M3264 4781 c2 -42 11 -45 13 -5 2 19 -1 34 -6 34 -5 0 -8 -13 -7 -29z"/>
<path d="M3917 4783 c-4 -3 -7 -13 -7 -21 0 -18 13 -7 16 13 2 17 1 18 -9 8z"/>
<path d="M3870 4730 c0 -5 5 -10 10 -10 6 0 10 5 10 10 0 6 -4 10 -10 10 -5 0
-10 -4 -10 -10z"/>
<path d="M3810 4660 c-14 -10 -21 -22 -17 -26 4 -4 7 -2 7 5 0 7 4 10 9 6 6
-3 15 4 21 15 13 25 12 25 -20 0z"/>
<path d="M3761 4606 c-6 -7 -8 -16 -4 -19 3 -4 0 -7 -9 -7 -19 0 -58 -45 -58
-67 0 -9 -3 -14 -6 -10 -4 3 -13 -1 -21 -9 -21 -21 -11 -27 15 -8 12 8 22 22
22 30 0 8 5 12 10 9 6 -3 10 -2 10 3 0 6 16 26 35 45 20 20 31 38 26 41 -5 3
-14 0 -20 -8z"/>
<path d="M4943 4606 c-13 -6 -23 -17 -23 -25 0 -11 3 -12 11 -4 6 6 18 9 25 6
9 -3 14 2 14 16 0 12 -1 20 -2 20 -2 -1 -13 -6 -25 -13z"/>
<path d="M4275 4490 c-3 -5 -1 -10 4 -10 6 0 11 5 11 10 0 6 -2 10 -4 10 -3 0
-8 -4 -11 -10z"/>
<path d="M3621 4453 c-8 -9 -10 -18 -4 -24 5 -5 13 -1 21 11 14 23 2 33 -17
13z"/>
<path d="M3580 4405 c-6 -8 -9 -19 -5 -25 7 -11 34 15 35 33 0 12 -17 8 -30
-8z"/>
<path d="M4130 4402 c0 -5 7 -9 15 -9 8 0 15 4 15 9 0 4 -7 8 -15 8 -8 0 -15
-4 -15 -8z"/>
<path d="M4092 4374 c-12 -8 -22 -21 -22 -27 0 -7 7 -4 15 7 7 10 18 15 24 11
6 -3 11 1 11 9 0 20 0 20 -28 0z"/>
<path d="M3464 4275 c-48 -52 -97 -107 -108 -122 -12 -14 -30 -35 -41 -47 -40
-42 -87 -107 -82 -113 9 -8 199 193 247 261 8 11 28 36 45 54 37 41 49 62 36
62 -5 0 -49 -43 -97 -95z"/>
<path d="M4010 4323 c-14 -9 -28 -22 -32 -27 -4 -6 -8 -7 -8 -3 0 8 -66 -28
-129 -70 -23 -16 -28 -23 -16 -23 21 0 97 40 108 58 4 6 15 12 22 12 8 0 24 9
36 21 12 12 28 22 37 23 17 3 30 26 15 26 -5 0 -20 -8 -33 -17z"/>
<path d="M3267 4213 c-4 -3 -7 -11 -7 -17 0 -6 5 -5 12 2 6 6 9 14 7 17 -3 3
-9 2 -12 -2z"/>
<path d="M3221 4158 c-14 -23 -14 -23 8 -4 22 20 25 26 13 26 -4 0 -13 -10
-21 -22z"/>
<path d="M3180 4112 c0 -5 -21 -32 -47 -60 -27 -28 -55 -59 -63 -69 -8 -10
-35 -39 -59 -66 -24 -26 -42 -50 -39 -52 8 -8 66 51 130 130 32 39 63 77 71
86 23 27 29 39 18 39 -6 0 -11 -4 -11 -8z"/>
<path d="M4625 3970 c3 -5 8 -10 11 -10 2 0 4 5 4 10 0 6 -5 10 -11 10 -5 0
-7 -4 -4 -10z"/>
<path d="M4073 3927 c-4 -8 -26 -26 -48 -40 -22 -15 -33 -27 -25 -27 33 1 105
22 112 33 12 19 9 27 -8 27 -8 0 -12 5 -9 10 3 6 2 10 -4 10 -5 0 -14 -6 -18
-13z"/>
<path d="M4545 3921 c-6 -11 9 -23 19 -14 9 9 7 23 -3 23 -6 0 -12 -4 -16 -9z"/>
<path d="M3883 3889 c-6 -6 -39 -12 -74 -14 -99 -6 -147 -15 -194 -35 -56 -24
-66 -42 -13 -23 49 17 89 10 120 -22 21 -22 23 -23 38 -5 11 12 21 16 30 10 9
-6 20 -2 31 12 18 20 59 18 59 -3 0 -5 5 -9 11 -9 14 0 39 25 39 39 0 6 9 11
21 11 11 0 18 4 14 10 -3 5 -13 6 -22 3 -12 -5 -15 -2 -10 9 9 24 -30 37 -50
17z"/>
<path d="M4489 3879 c-13 -12 -33 -27 -43 -35 -11 -7 -16 -17 -12 -21 4 -4 12
0 17 8 5 9 20 20 34 23 14 4 23 11 20 16 -3 6 1 10 9 10 9 0 16 5 16 10 0 16
-15 12 -41 -11z"/>
<path d="M3225 3735 l-30 -25 28 11 c15 7 27 16 27 20 0 4 10 10 23 12 19 4
19 4 2 6 -11 0 -33 -10 -50 -24z"/>
<path d="M3501 3731 c-23 -63 -23 -64 12 -35 19 16 32 36 29 45 -6 24 -30 18
-41 -10z"/>
<path d="M3150 3698 c-53 -30 -54 -33 -18 -64 72 -63 132 -185 129 -261 -1
-28 3 -29 31 -1 21 21 21 21 2 35 -23 17 -25 33 -7 54 12 15 11 17 -13 23 -20
5 -25 12 -21 26 3 13 1 18 -6 13 -7 -3 -3 3 7 15 17 19 17 22 3 22 -10 0 -19
-1 -20 -2 -2 -2 -11 3 -20 11 -11 8 -15 21 -11 36 5 20 1 24 -22 27 -35 4 -41
37 -11 60 32 25 17 28 -23 6z"/>
<path d="M4867 3563 c-4 -3 2 -12 13 -20 15 -11 20 -26 20 -58 0 -24 5 -47 10
-50 6 -4 10 9 10 32 0 21 6 50 14 65 8 15 12 29 8 32 -8 8 -67 7 -75 -1z"/>
<path d="M5400 3563 c-8 -3 -18 -11 -22 -17 -15 -22 -7 -26 17 -10 24 16 27
15 45 -1 11 -10 23 -34 26 -54 6 -30 8 -32 15 -16 13 35 10 55 -16 80 -24 25
-37 28 -65 18z"/>
<path d="M5262 3540 c13 -20 28 -27 28 -12 0 10 -22 32 -32 32 -5 0 -3 -9 4
-20z"/>
<path d="M5613 3545 c24 -24 22 -31 -25 -74 -28 -26 -39 -44 -35 -55 7 -17 53
-22 76 -7 11 7 9 10 -7 15 l-21 7 20 39 c24 46 22 83 -5 88 -18 4 -19 3 -3
-13z"/>
<path d="M5762 3543 c0 -10 -3 -26 -6 -35 -5 -11 -1 -20 13 -28 26 -13 27 -45
4 -59 -16 -10 -16 -10 3 -11 45 0 57 40 22 77 -17 18 -19 26 -10 35 18 18 14
38 -7 38 -12 0 -19 -7 -19 -17z"/>
<path d="M4686 3531 c-10 -16 1 -29 45 -52 52 -26 50 -52 -6 -59 -36 -5 -37
-6 -15 -13 38 -11 48 -9 70 13 27 27 12 56 -33 68 -18 5 -37 18 -43 31 -7 14
-14 19 -18 12z"/>
<path d="M4505 3500 c-8 -13 5 -80 16 -80 5 0 6 7 3 15 -4 8 -1 22 6 30 13 16
7 45 -9 45 -5 0 -13 -4 -16 -10z"/>
<path d="M3146 3460 c3 -14 11 -32 16 -40 6 -10 7 -7 2 10 -3 14 -11 32 -16
40 -6 10 -7 7 -2 -10z"/>
<path d="M5210 3440 c-20 -20 -21 -24 -6 -32 11 -6 27 -6 44 1 15 5 21 10 14
10 -7 1 -16 11 -21 23 l-8 21 -23 -23z"/>
<path d="M3580 3440 c-13 -8 -13 -10 2 -10 9 0 20 5 23 10 8 13 -5 13 -25 0z"/>
<path d="M5360 3446 c0 -2 7 -9 15 -16 13 -11 14 -10 9 4 -5 14 -24 23 -24 12z"/>
<path d="M4010 3416 c0 -9 5 -16 10 -16 6 0 19 -8 29 -17 99 -90 478 -288 511
-268 6 3 10 1 10 -6 0 -7 3 -9 7 -6 3 4 12 2 20 -5 7 -6 16 -8 20 -5 3 4 15 2
25 -4 13 -7 24 -7 30 -1 6 6 -4 12 -27 16 -21 4 -49 12 -64 18 -14 6 -30 12
-36 14 -86 26 -383 174 -393 197 -2 4 -8 7 -14 7 -5 0 -36 21 -69 46 -41 31
-59 40 -59 30z"/>
<path d="M3171 3384 c0 -11 3 -14 6 -6 3 7 2 16 -1 19 -3 4 -6 -2 -5 -13z"/>
<path d="M2766 3367 c-38 -38 -33 -104 9 -127 58 -31 125 4 125 66 0 43 -27
73 -72 80 -30 5 -41 2 -62 -19z"/>
<path d="M3366 3331 c-4 -5 3 -7 14 -4 23 6 26 13 6 13 -8 0 -17 -4 -20 -9z"/>
<path d="M3272 3318 c-28 -28 -6 -57 28 -36 24 15 26 28 4 28 -8 0 -12 5 -9
10 9 14 -8 13 -23 -2z"/>
<path d="M3892 3219 c6 -18 65 -62 71 -52 3 4 -13 21 -35 36 -22 16 -38 23
-36 16z"/>
<path d="M4074 3150 c3 -16 1 -30 -4 -30 -5 0 -6 -8 -3 -17 5 -13 2 -15 -11
-10 -10 4 -19 1 -22 -7 -3 -8 -19 -17 -37 -20 -24 -5 -28 -9 -19 -18 13 -13
82 -16 126 -5 27 8 28 10 22 50 -8 46 -30 87 -47 87 -7 0 -9 -11 -5 -30z"/>
<path d="M6135 3120 c-3 -5 -1 -10 4 -10 6 0 11 5 11 10 0 6 -2 10 -4 10 -3 0
-8 -4 -11 -10z"/>
<path d="M6142 3099 c-19 -17 -32 -32 -30 -34 7 -8 68 38 68 51 0 18 1 18 -38
-17z"/>
<path d="M4220 3097 c0 -16 5 -37 10 -48 8 -13 7 -19 0 -19 -7 0 -10 -6 -7
-12 5 -16 -31 -48 -54 -48 -19 0 -35 -17 -26 -27 13 -12 104 -5 134 10 l33 17
-20 52 c-11 29 -31 64 -45 77 l-25 26 0 -28z"/>
<path d="M3430 3092 c0 -10 77 -84 165 -158 75 -63 210 -159 295 -211 97 -58
371 -188 416 -196 11 -2 33 -10 49 -16 26 -11 176 -53 240 -67 72 -17 127 -24
134 -19 5 3 12 1 16 -5 3 -5 26 -10 51 -10 67 0 45 17 -33 25 -80 8 -268 54
-377 91 -100 33 -321 125 -363 150 -17 10 -74 43 -125 73 -142 83 -230 148
-367 269 -76 68 -101 86 -101 74z"/>
<path d="M6174 3086 c-18 -8 -34 -18 -38 -24 -8 -13 46 -23 59 -11 7 7 7 10 0
9 -30 -6 -37 2 -12 16 15 8 27 17 27 19 0 6 0 6 -36 -9z"/>
<path d="M4690 3080 c0 -5 10 -10 23 -10 18 0 19 2 7 10 -19 13 -30 13 -30 0z"/>
<path d="M5990 3065 c0 -8 -7 -18 -15 -21 -19 -8 -20 -24 -2 -24 18 0 40 47
27 55 -6 4 -10 -1 -10 -10z"/>
<path d="M4765 3061 c-3 -6 3 -10 12 -10 17 0 28 -2 113 -16 26 -4 40 -3 40 4
0 6 -10 11 -22 11 -63 2 -97 6 -104 13 -10 10 -32 9 -39 -2z"/>
<path d="M4380 3023 c0 -10 9 -32 20 -50 16 -27 17 -31 3 -26 -12 5 -15 2 -10
-10 4 -12 1 -17 -10 -17 -9 0 -13 -3 -9 -7 4 -4 -8 -14 -25 -23 -44 -21 -41
-34 8 -38 43 -3 123 28 123 49 0 29 -74 139 -94 139 -3 0 -6 -8 -6 -17z"/>
<path d="M4970 3031 c0 -4 23 -9 52 -10 28 -1 49 2 45 6 -10 10 -97 14 -97 4z"/>
<path d="M5985 3012 c-17 -9 -32 -18 -34 -19 -2 -1 3 -8 11 -16 12 -13 19 -12
49 4 36 19 23 27 -14 8 -19 -9 -18 -7 3 10 32 26 23 34 -15 13z"/>
<path d="M4547 2963 c3 -10 15 -30 25 -45 14 -20 15 -28 6 -31 -10 -4 -9 -8 2
-16 13 -9 13 -11 -2 -11 -10 0 -18 -7 -18 -15 0 -8 -16 -22 -35 -31 -44 -20
-36 -34 18 -34 36 0 80 19 125 56 2 1 -8 24 -22 51 -32 59 -116 123 -99 76z"/>
<path d="M5810 2960 c-8 -5 -12 -12 -9 -15 4 -3 12 1 19 10 14 17 11 19 -10 5z"/>
<path d="M6010 2966 c0 -2 7 -6 15 -10 8 -3 15 -1 15 4 0 6 -7 10 -15 10 -8 0
-15 -2 -15 -4z"/>
<path d="M5640 2942 c-31 -35 -39 -49 -45 -81 -5 -29 -3 -33 12 -27 9 4 14 4
11 0 -10 -9 15 -32 28 -27 7 2 15 -1 20 -8 5 -8 3 -10 -6 -4 -9 5 -11 4 -6 -3
7 -12 82 -10 94 3 4 5 -1 6 -10 2 -9 -3 -19 0 -22 8 -3 8 -22 17 -43 21 -35 7
-36 8 -13 14 22 6 23 8 7 15 -17 7 -17 8 0 21 17 13 17 13 1 14 -24 0 -23 13
2 35 11 10 20 22 20 27 0 14 -34 8 -50 -10z"/>
<path d="M6060 2950 c-9 -6 -10 -10 -3 -10 6 0 15 5 18 10 8 12 4 12 -15 0z"/>
<path d="M5806 2925 c-14 -13 -26 -19 -26 -13 0 6 -3 8 -6 5 -10 -10 16 -37
37 -37 9 0 25 -7 34 -17 14 -14 18 -14 26 -2 13 21 11 27 -13 32 -23 4 -23 4
2 16 23 11 22 11 -15 7 -34 -4 -37 -3 -17 6 12 6 22 15 22 20 0 15 -16 9 -44
-17z"/>
<path d="M4730 2925 c0 -9 11 -28 25 -43 18 -19 21 -28 12 -34 -9 -6 -8 -10 3
-18 12 -7 12 -10 1 -10 -7 0 -11 -6 -8 -15 4 -9 -7 -22 -33 -36 -55 -31 -54
-53 3 -44 55 10 90 28 111 60 16 24 16 28 0 61 -17 36 -79 94 -101 94 -7 0
-13 -7 -13 -15z"/>
<path d="M5452 2900 c-12 -10 -22 -21 -22 -24 0 -3 -9 -15 -20 -26 -11 -11
-20 -27 -20 -36 0 -25 60 -75 81 -69 11 4 19 2 19 -4 0 -6 9 -11 20 -11 28 0
15 27 -24 47 -17 9 -25 18 -18 20 18 7 15 21 -5 26 -17 4 -17 5 0 6 20 1 23
17 5 24 -10 3 -9 9 4 23 25 28 9 47 -20 24z"/>
<path d="M5087 2822 c-22 -24 -21 -35 1 -54 20 -18 49 -16 69 5 11 11 12 19 2
40 -14 32 -48 36 -72 9z"/>
<path d="M4850 2412 c0 -5 26 -10 57 -11 32 -1 55 1 51 4 -10 10 -108 16 -108
7z"/>
<path d="M5345 2410 c3 -5 8 -10 11 -10 2 0 4 5 4 10 0 6 -5 10 -11 10 -5 0
-7 -4 -4 -10z"/>
<path d="M4970 2401 c0 -5 20 -9 45 -9 25 -1 45 3 45 8 0 6 -20 10 -45 10 -25
0 -45 -4 -45 -9z"/>
<path d="M5070 2400 c0 -5 12 -10 28 -9 24 0 25 1 7 9 -27 12 -35 12 -35 0z"/>
<path d="M5143 2398 c16 -10 64 -10 70 0 3 4 -14 7 -38 7 -24 0 -38 -3 -32 -7z"/>
<path d="M5230 2400 c0 -5 5 -10 10 -10 6 0 10 5 10 10 0 6 -4 10 -10 10 -5 0
-10 -4 -10 -10z"/>
<path d="M4540 2229 c0 -21 76 -42 100 -29 29 15 25 30 -7 30 -16 0 -43 2 -60
6 -24 5 -33 3 -33 -7z"/>
<path d="M4135 2145 c-128 -46 -137 -239 -14 -294 51 -23 91 -91 54 -91 -8 0
-15 -5 -15 -11 0 -6 12 -9 28 -7 30 3 43 38 22 63 -14 17 -5 35 18 35 25 0 62
28 62 47 0 12 -7 14 -30 9 -16 -3 -43 -9 -60 -12 -25 -5 -35 -1 -65 29 -30 30
-35 42 -35 82 0 38 5 52 30 77 31 31 45 32 135 16 29 -5 31 28 2 47 -36 23
-86 27 -132 10z"/>
<path d="M8001 2150 c-79 -19 -124 -83 -118 -167 14 -194 293 -203 314 -10 13
112 -88 203 -196 177z m98 -67 c44 -36 44 -140 1 -175 -33 -27 -95 -24 -125 7
-20 20 -25 34 -25 78 0 75 25 107 85 107 26 0 51 -7 64 -17z"/>
<path d="M2131 2142 c-6 -2 -11 -10 -11 -18 0 -13 19 -20 70 -26 24 -3 25 -5
21 -75 -1 -40 0 -95 4 -123 6 -43 10 -50 30 -50 19 0 24 7 30 46 4 26 5 79 4
118 -4 82 4 100 36 92 29 -8 55 2 55 20 0 8 -3 14 -7 15 -41 3 -223 4 -232 1z"/>
<path d="M2527 2144 c-8 -9 -10 -266 -1 -288 3 -9 15 -16 25 -16 18 0 23 12
31 65 2 14 12 21 35 23 29 3 36 -2 65 -42 22 -32 39 -46 55 -46 28 0 29 17 3
50 -25 32 -25 54 -1 88 32 44 31 112 -1 142 -18 17 -34 21 -78 19 -30 -1 -71
1 -90 5 -19 4 -39 4 -43 0z m128 -39 c48 -19 63 -59 37 -94 -15 -21 -28 -26
-63 -26 l-44 0 -3 53 c-3 51 8 82 30 82 5 0 24 -7 43 -15z"/>
<path d="M3039 2143 c-9 -2 -27 -27 -39 -56 -51 -122 -90 -229 -84 -238 10
-17 34 -9 51 19 25 39 32 42 93 42 64 0 75 -6 89 -43 7 -19 18 -27 34 -27 36
0 38 9 15 53 -11 23 -28 64 -38 92 -31 88 -60 144 -80 155 -10 5 -20 9 -22 9
-2 -1 -10 -3 -19 -6z"/>
<path d="M3380 2135 c-5 -6 -8 -71 -7 -151 l2 -139 80 1 c136 2 181 35 192
138 7 67 -8 108 -49 138 -25 17 -47 21 -119 23 -58 1 -92 -2 -99 -10z m154
-45 c35 -13 57 -51 59 -104 2 -38 -3 -50 -25 -73 -23 -23 -36 -27 -74 -25 -25
1 -50 4 -55 7 -5 4 -9 51 -9 106 l0 99 39 0 c22 0 51 -4 65 -10z"/>
<path d="M4568 2140 c-29 -18 -135 -258 -124 -285 9 -24 36 -17 54 14 17 31
45 41 114 41 34 0 41 -4 59 -35 15 -25 28 -35 45 -35 28 0 32 24 10 55 -7 11
-21 43 -30 72 -10 28 -26 63 -36 76 -10 13 -22 37 -26 53 -12 51 -31 64 -66
44z m41 -88 c5 -9 12 -34 16 -55 8 -42 -6 -54 -51 -43 -24 6 -26 10 -21 47 8
61 37 87 56 51z"/>
<path d="M4954 2136 c-110 -50 -111 -232 -1 -285 53 -26 89 -26 143 -2 103 47
123 180 39 261 -30 29 -43 34 -92 37 -35 2 -70 -2 -89 -11z m141 -60 c70 -70
29 -186 -67 -186 -58 0 -88 36 -88 107 0 44 5 58 25 78 33 34 96 35 130 1z"/>
<path d="M5571 2136 c-8 -9 -11 -57 -9 -152 l3 -139 108 -3 c108 -3 108 -3
105 20 -3 21 -9 23 -78 28 l-75 5 -3 37 -3 37 68 3 c60 3 68 5 68 23 0 18 -8
20 -65 23 -70 3 -81 11 -71 50 8 30 33 40 104 41 40 1 48 4 45 19 -3 14 -17
17 -94 20 -69 2 -94 -1 -103 -12z"/>
<path d="M6318 2145 c-3 -4 -37 -7 -75 -8 l-68 -2 0 -145 0 -145 80 -3 c86 -3
125 3 125 19 0 12 -12 16 -82 24 -61 7 -76 23 -63 65 5 16 15 20 50 20 53 0
75 8 75 26 0 15 -24 22 -85 26 -38 3 -40 5 -43 40 -4 44 9 50 98 46 49 -3 55
-1 55 17 0 15 -8 21 -30 23 -17 2 -34 0 -37 -3z"/>
<path d="M6912 2138 c-18 -18 5 -38 44 -38 18 0 35 -4 38 -8 3 -5 6 -56 6
-113 1 -57 4 -112 7 -121 4 -17 43 -26 43 -10 1 65 12 238 16 244 3 4 20 8 38
8 39 0 62 20 44 38 -16 16 -220 16 -236 0z"/>
<path d="M7311 2137 c-8 -10 -11 -57 -9 -153 l3 -139 27 -3 c23 -3 28 1 33 31
4 18 3 87 -2 153 -6 96 -11 119 -24 122 -9 1 -21 -4 -28 -11z"/>
<path d="M7554 2137 c-2 -7 -3 -76 -2 -152 l3 -140 93 -3 c78 -2 93 0 99 14 9
24 -14 34 -79 34 l-58 0 -2 48 c-1 26 0 77 1 115 3 68 -7 97 -36 97 -7 0 -16
-6 -19 -13z"/>
<path d="M3827 2133 c-9 -15 -19 -223 -13 -258 6 -29 11 -35 31 -35 18 0 26 7
31 26 10 39 -4 244 -17 260 -13 15 -25 18 -32 7z"/>
<path d="M6572 2120 c-15 -15 -22 -32 -22 -60 0 -45 28 -73 94 -92 22 -6 50
-20 61 -30 20 -19 20 -19 -5 -40 -25 -20 -34 -20 -117 -2 -29 6 -33 4 -33 -14
0 -27 27 -42 88 -48 83 -9 154 47 138 110 -9 38 -37 58 -104 76 -50 13 -57 18
-60 42 -2 19 3 31 21 43 23 14 28 14 67 -1 36 -14 43 -15 51 -3 17 27 2 34
-77 37 -69 2 -82 0 -102 -18z"/>
</g>
</svg>
